<svg xmlns="http://www.w3.org/2000/svg" height="40" width="139" version="1.1" data-name="Warstwa 1" id="Warstwa_1"><defs id="defs4"><style id="style2"></style></defs><path d="M130.853 14.85a14.963 14.963 0 013.228-.407q2.42 0 3.637.95t1.22 3.114v7.677h-3.367v-6.997q0-1.969-2.213-1.966a4.869 4.869 0 00-1.018.112 3.262 3.262 0 00-.813.272v8.58h-3.36V15.743a11.056 11.056 0 012.686-.894zm-14.97 10.137q-1.445-1.528-1.445-4.56 0-3.158 1.434-4.607 1.434-1.449 4.347-1.444 2.91 0 4.38 1.48 1.469 1.48 1.466 4.57 0 2.985-1.512 4.538-1.513 1.554-4.33 1.559-2.894 0-4.34-1.536zm6.21-2.019q.631-.87.631-2.546 0-1.829-.62-2.608-.622-.78-1.885-.78-1.31 0-1.887.78-.578.78-.576 2.608 0 1.741.599 2.574.598.833 1.864.835a2.175 2.175 0 001.874-.863zm-13.572 3.216V10.452h3.343V26.19zm-6.682-15.579h3.468v2.598h-3.468zm.069 4.314h3.363l.023 11.265h-3.386zm-9.69 11.39a14.596 14.596 0 01-1.805-.621V22.73a6.297 6.297 0 003.838 1.378 1.895 1.895 0 001.117-.255.838.838 0 00.352-.713.812.812 0 00-.565-.764 11.459 11.459 0 00-1.806-.542 4.29 4.29 0 01-2.157-1.085q-.848-.81-.848-2.37a3.438 3.438 0 01.678-2.19 3.947 3.947 0 011.706-1.253 5.915 5.915 0 012.139-.41 8.385 8.385 0 012.2.237 6.577 6.577 0 011.66.733v2.643a21.567 21.567 0 00-1.782-.904 3.708 3.708 0 00-1.47-.27 2.366 2.366 0 00-1.24.255.825.825 0 00-.407.736.879.879 0 00.45.822 6.514 6.514 0 001.447.532 12.857 12.857 0 011.782.576 2.944 2.944 0 011.18.98q.509.688.509 1.93-.046 1.946-1.467 2.835-1.42.888-3.613.89a7.502 7.502 0 01-1.897-.213zm-5.576-10.51q1.513 1.435 1.513 4.775 0 2.69-1.355 4.314-1.355 1.625-3.703 1.625a6.066 6.066 0 01-2.867-.609v4.357h-3.297V17.175q0-1.375 1.527-2.075 1.528-.7 3.917-.724 2.752 0 4.265 1.424zm-2.506 7.238q.652-.764.655-2.575c0-1.084-.191-1.9-.576-2.45-.384-.55-1.041-.824-1.976-.824q-2.009 0-2.009.764v5.373a2.99 2.99 0 00.904.361 4.3 4.3 0 00.97.112q1.375.015 2.032-.751zM73.3 15.8q1.51 1.434 1.512 4.774 0 2.69-1.354 4.314-1.355 1.625-3.705 1.625a6.073 6.073 0 01-2.868-.609v4.357H63.59V17.175q0-1.375 1.528-2.075 1.528-.7 3.92-.724 2.75 0 4.262 1.424zm-2.508 7.237q.657-.764.654-2.575c0-1.084-.19-1.9-.575-2.45-.385-.55-1.042-.824-1.976-.824q-2.01 0-2.01.764v5.373a3.056 3.056 0 00.904.361 4.3 4.3 0 00.97.112q1.38.015 2.033-.751zm-14.067-.107h-5.622l-1.085 3.249h-3.453l5.689-15.06h3.998l5.327 15.06h-3.746zm-.904-2.69l-1.917-5.688-1.897 5.689z" id="path20" fill="#6e757b" stroke-width=".255"/><path id="path22" d="M2.41 1.889v36.279l31.42-18.141zm9.803 18.138L3.568 35.005V5.049zm.67 0zm.334.578h17.295L4.572 35.583zm0-1.159L4.57 4.471l25.94 14.978z" display="inline" opacity=".7" fill="#8a8e91" stroke-width=".255"/><path d="M31.003 17.35a3.007 3.007 0 104.11 1.103 3.01 3.01 0 00-4.11-1.102m-29.5 17.038a3.007 3.007 0 104.11 1.102 3.01 3.01 0 00-4.11-1.102m9.875-16.967a3.007 3.007 0 104.107 1.1 3.01 3.01 0 00-4.107-1.1M1.551.402a3.007 3.007 0 104.108 1.1A3.01 3.01 0 001.55.402" id="path30" fill="#0099f9" stroke-width=".255"/></svg>